<?xml version="1.0" encoding="UTF-8"?>
<svg version="1.1" xmlns="http://www.w3.org/2000/svg" width="300" height="300">
<path d="M0 0 C99 0 198 0 300 0 C300 99 300 198 300 300 C201 300 102 300 0 300 C0 201 0 102 0 0 Z " fill="#000101" transform="translate(0,0)"/>
<path d="M0 0 C99 0 198 0 300 0 C300 99 300 198 300 300 C201 300 102 300 0 300 C0 201 0 102 0 0 Z M142.33203125 4.35546875 C141.44813721 4.64558838 140.56424316 4.93570801 139.65356445 5.23461914 C138.71601318 5.54906982 137.77846191 5.86352051 136.8125 6.1875 C129.84842486 8.46755919 122.88860363 10.65687666 115.8125 12.5625 C109.65591332 14.22660913 103.57163326 16.04853584 97.5 18 C91.42831025 19.95148231 85.34380761 21.77226364 79.1875 23.4375 C71.42887358 25.54060237 63.78247487 27.93646541 56.13305664 30.4050293 C49.66250322 32.48849617 43.17002037 34.46492148 36.62866211 36.31445312 C28.15072339 38.44366126 28.15072339 38.44366126 21 43 C20.69213813 45.55400546 20.69213813 45.55400546 20.73930359 48.5818634 C20.73221878 49.76904968 20.72513397 50.95623596 20.71783447 52.17939758 C20.72031189 53.48893906 20.72278931 54.79848053 20.7253418 56.14770508 C20.72099604 57.53575923 20.71581335 58.92381097 20.70985413 60.31185913 C20.69642545 64.09144552 20.69589065 67.87093212 20.69841743 71.65053773 C20.69948639 74.81075842 20.69460472 77.97095886 20.689812 81.13117522 C20.6786995 88.5984518 20.67828655 96.06567812 20.68432617 103.53295898 C20.69034295 111.21267733 20.67811775 118.89221139 20.6567561 126.57189828 C20.63906573 133.17676988 20.63315114 139.78158327 20.63639385 146.38647765 C20.638198 150.32557687 20.63565977 154.26454521 20.62167931 158.20362282 C20.60898734 161.91943758 20.61115087 165.63496944 20.62409019 169.35078049 C20.62753821 171.34379075 20.61635685 173.3368101 20.60452271 175.32978821 C20.75769953 201.93263341 33.7403459 222.74656301 52 241 C73.4424478 262.14871564 117.73951604 297.02487466 149.3359375 297.33203125 C154.27116982 297.21314735 158.17574045 295.71248351 162.625 293.6875 C163.69234375 293.2244043 163.69234375 293.2244043 164.78125 292.75195312 C166.19529616 292.13686894 167.60617872 291.5144565 169.01367188 290.88452148 C170.7930726 290.09214577 172.58713545 289.33288995 174.3828125 288.578125 C199.87510572 277.45621738 223.62543619 262.84576322 244.0078125 243.8359375 C246 242 246 242 249.0625 239.625 C253.61866248 235.55353566 257.26602385 230.82141482 261 226 C261.61101562 225.21625 262.22203125 224.4325 262.8515625 223.625 C266.54096745 218.63840701 269.5042552 213.39021699 272.3125 207.875 C272.65031494 207.21798096 272.98812988 206.56096191 273.33618164 205.8840332 C273.65449951 205.23909912 273.97281738 204.59416504 274.30078125 203.9296875 C274.58091064 203.36491699 274.86104004 202.80014648 275.1496582 202.21826172 C278.31944303 193.94933695 278.27403433 186.08100506 278.22705078 177.32226562 C278.2264859 175.84327197 278.22680472 174.36427775 278.22793579 172.88528442 C278.22850732 168.88996808 278.21678548 164.89477293 278.20278788 160.89948463 C278.19024711 156.71680956 278.18910739 152.53413141 278.18673706 148.35144043 C278.1805321 140.4397531 278.16413465 132.52812133 278.14403808 124.61645842 C278.12164839 115.60556945 278.11067794 106.59467777 278.10064721 97.58376789 C278.07976752 79.05581381 278.04461074 60.52791138 278 42 C276.59413183 41.35977304 275.18654697 40.72331512 273.77827454 40.08839417 C272.99461675 39.73355233 272.21095896 39.3787105 271.40355396 39.01311588 C267.50664855 37.37054125 263.48857658 36.27744885 259.41796875 35.15234375 C248.08916366 31.93126699 236.81528161 28.54438121 225.54648209 25.12028885 C222.47623758 24.18774816 219.4054404 23.2570511 216.33444214 22.32699585 C199.14180221 17.12010573 199.14180221 17.12010573 190.79272461 14.57836914 C185.52787524 12.97578471 180.26103529 11.37990461 174.99278831 9.78852654 C173.00053317 9.18536746 171.00902721 8.57972784 169.01830482 7.97152901 C166.25537928 7.12772199 163.48999698 6.29249353 160.72387695 5.45922852 C159.90993973 5.20840515 159.0960025 4.95758179 158.25740051 4.69915771 C152.48031686 2.97316339 148.152174 2.40701489 142.33203125 4.35546875 Z " fill="#1DCFF9" transform="translate(0,0)"/>
<path d="M0 0 C2.06538025 1.56443091 2.89981873 2.45055112 3.36914349 5.02458477 C3.36637811 5.80349984 3.36361273 6.58241491 3.36076355 7.38493347 C3.36488754 8.28095779 3.36901154 9.17698212 3.3732605 10.10015869 C3.36247467 11.08055115 3.35168884 12.0609436 3.34057617 13.07104492 C3.34123329 14.62251976 3.34123329 14.62251976 3.34190369 16.20533752 C3.33981051 19.63057203 3.31645402 23.05531955 3.29296875 26.48046875 C3.28737469 28.85272453 3.2831037 31.22498378 3.28010559 33.59724426 C3.26864191 39.84611552 3.23916143 46.09477816 3.20599365 52.34356689 C3.17532569 58.71794818 3.16160725 65.09236311 3.14648438 71.46679688 C3.11429336 83.97795368 3.06365377 96.48896575 3 109 C4.7752581 108.99000725 4.7752581 108.99000725 6.58638 108.97981262 C17.72553826 108.91906666 28.86466302 108.8740587 40.00394917 108.84456348 C45.7311371 108.82889007 51.4581916 108.80762113 57.18530273 108.77368164 C62.70957442 108.7411481 68.23371755 108.72315962 73.75807762 108.71536827 C75.8684714 108.70981396 77.97885793 108.69896813 80.08919716 108.68280983 C83.0391945 108.6611155 85.98865677 108.65802973 88.9387207 108.65942383 C89.81625504 108.648638 90.69378937 108.63785217 91.59791565 108.6267395 C97.57720754 108.65742963 97.57720754 108.65742963 99.72330761 110.3963213 C101.38276419 112.48079772 101.39103144 113.71017546 101.41992188 116.35693359 C101.43583374 117.2357016 101.45174561 118.1144696 101.46813965 119.01986694 C101.46834106 119.96979523 101.46854248 120.91972351 101.46875 121.8984375 C101.47636353 122.88437897 101.48397705 123.87032043 101.49182129 124.88613892 C101.50263826 126.97924267 101.50546894 129.07240046 101.50097656 131.16552734 C101.50001407 134.32875397 101.54141094 137.48947374 101.5859375 140.65234375 C101.65269452 151.75444908 101.40846797 161.04597041 96 171 C95.66049316 171.64598145 95.32098633 172.29196289 94.97119141 172.95751953 C76.83367882 204.51130382 40.18896658 224.81884689 8 239 C7.01773438 239.44601562 6.03546875 239.89203125 5.0234375 240.3515625 C4.14945312 240.73054687 3.27546875 241.10953125 2.375 241.5 C1.64023438 241.8196875 0.90546875 242.139375 0.1484375 242.46875 C-2.56961278 243.14084971 -4.338021 242.81362813 -7 242 C-9 240 -9 240 -9.24609566 237.89543724 C-9.24333028 236.58188224 -9.24333028 236.58188224 -9.24050903 235.24179077 C-9.24325836 234.23775711 -9.24600769 233.23372345 -9.24884033 232.19926453 C-9.2380545 230.54094353 -9.2380545 230.54094353 -9.22705078 228.84912109 C-9.22734283 227.68815414 -9.22763489 226.52718719 -9.22793579 225.33103943 C-9.22653804 221.47843046 -9.21095575 217.62601285 -9.1953125 213.7734375 C-9.19158395 211.1082832 -9.1886379 208.44313963 -9.18673706 205.77798462 C-9.18051488 199.47043425 -9.16409413 193.162953 -9.14403808 186.85543311 C-9.12170199 179.67536378 -9.11069143 172.4952912 -9.10064721 165.3151958 C-9.07972851 150.54342847 -9.04453823 135.77171544 -9 121 C-10.19603348 121.01110306 -11.39206696 121.02220612 -12.62434387 121.03364563 C-23.88117628 121.13488692 -35.13791666 121.20990071 -46.39510059 121.25906086 C-52.18294522 121.28518414 -57.97042311 121.32063262 -63.75805664 121.37719727 C-69.34070642 121.43141872 -74.9230029 121.46139994 -80.50589561 121.47438622 C-82.6386541 121.48364379 -84.77139267 121.50172124 -86.90400124 121.52865028 C-89.88540458 121.56480902 -92.86533745 121.56995082 -95.84692383 121.56762695 C-96.7338089 121.58560333 -97.62069397 121.60357971 -98.53445435 121.62210083 C-104.42237162 121.57225429 -104.42237162 121.57225429 -107.04681396 118.972229 C-108.24621099 115.23226377 -108.42732546 111.76364524 -108.40405273 107.87670898 C-108.41091599 107.07285767 -108.41777924 106.26900635 -108.42485046 105.4407959 C-108.44310353 102.79238057 -108.43928408 100.14455828 -108.43359375 97.49609375 C-108.43815543 95.65193998 -108.44346097 93.8077879 -108.44947815 91.96363831 C-108.45840567 88.10272301 -108.45598923 84.24201462 -108.44604492 80.38110352 C-108.43454045 75.43214493 -108.45479103 70.48389829 -108.48396206 65.53503323 C-108.5022993 61.72861698 -108.50203682 57.92237225 -108.49632454 54.11592293 C-108.4961711 52.29105694 -108.50223392 50.4661795 -108.51461601 48.64135551 C-108.5294822 46.09174611 -108.51888302 43.54346412 -108.50170898 40.99389648 C-108.51621094 39.86308403 -108.51621094 39.86308403 -108.53100586 38.70942688 C-108.48239471 35.26582568 -108.26922595 33.35475865 -106.16000366 30.57543945 C-103.33725381 28.51661356 -100.72364919 27.74021724 -97.35546875 26.81640625 C-96.385205 26.54303688 -96.385205 26.54303688 -95.39533997 26.2641449 C-93.32931093 25.68437469 -91.25892829 25.12263976 -89.1875 24.5625 C-86.49189079 23.81949821 -83.79840063 23.06904812 -81.10546875 22.31640625 C-80.4372258 22.13079636 -79.76898285 21.94518646 -79.08049011 21.75395203 C-73.10527346 20.07482092 -67.23585173 18.13420836 -61.36523438 16.12255859 C-56.89822526 14.63247532 -52.3817599 13.3614588 -47.84765625 12.09375 C-43.29597567 10.81355224 -38.77532551 9.4323306 -34.25 8.0625 C-27.55172925 6.04872871 -20.84971438 4.04883731 -14.125 2.125 C-13.39442383 1.90980713 -12.66384766 1.69461426 -11.91113281 1.47290039 C-7.85466275 0.32805124 -4.21118414 -0.5033777 0 0 Z " fill="#1CCFF8" transform="translate(153,29)"/>
<path d="M0 0 C11.22 0 22.44 0 34 0 C34.99 2.97 35.98 5.94 37 9 C38.98 9 40.96 9 43 9 C44.14877384 23.09729871 43.24374212 32.00885862 34 43 C33 44 33 44 29.85717773 44.11352539 C28.46597304 44.11327441 27.07476209 44.10771709 25.68359375 44.09765625 C25.03588013 44.09664917 24.3881665 44.09564209 23.7208252 44.09460449 C21.29303221 44.08935843 18.86526439 44.07539725 16.4375 44.0625 C8.3009375 44.0315625 8.3009375 44.0315625 0 44 C0 29.48 0 14.96 0 0 Z " fill="#25BCEE" transform="translate(180,146)"/>
<path d="M0 0 C4.95 0 9.9 0 15 0 C15 14.52 15 29.04 15 44 C10.05 44 5.1 44 0 44 C0 29.48 0 14.96 0 0 Z " fill="#02090D" transform="translate(226,146)"/>
<path d="M0 0 C4.95 0 9.9 0 15 0 C15 14.52 15 29.04 15 44 C10.05 44 5.1 44 0 44 C0 29.48 0 14.96 0 0 Z " fill="#01090C" transform="translate(180,146)"/>
<path d="M0 0 C4.95 0 9.9 0 15 0 C15 14.52 15 29.04 15 44 C10.05 44 5.1 44 0 44 C0 29.48 0 14.96 0 0 Z " fill="#000708" transform="translate(59,99)"/>
<path d="M0 0 C4.62 0 9.24 0 14 0 C14 14.52 14 29.04 14 44 C9.38 44 4.76 44 0 44 C0 29.48 0 14.96 0 0 Z " fill="#000101" transform="translate(105,99)"/>
<path d="M0 0 C1.2065625 0.0309375 1.2065625 0.0309375 2.4375 0.0625 C2.4375 2.7025 2.4375 5.3425 2.4375 8.0625 C-1.1925 8.0625 -4.8225 8.0625 -8.5625 8.0625 C-8.5625 13.0125 -8.5625 17.9625 -8.5625 23.0625 C-4.9325 23.0625 -1.3025 23.0625 2.4375 23.0625 C2.4375 25.7025 2.4375 28.3425 2.4375 31.0625 C-15.41795745 32.43599673 -15.41795745 32.43599673 -20.6875 28 C-24.57875719 23.01990478 -24.57646869 17.55941406 -24.1875 11.4453125 C-23.5625 8.0625 -23.5625 8.0625 -21.4375 4.75 C-17.05298304 2.10655031 -11.49555465 1.942652 -6.51171875 1.421875 C-3.37973936 1.04022983 -3.03853395 0.07411058 0 0 Z " fill="#000405" transform="translate(175.5625,158.9375)"/>
<path d="M0 0 C16.7666855 -1.20034226 16.7666855 -1.20034226 22.0625 2.5 C26.27628178 7.11238276 26.00360076 13.33279452 25.76953125 19.2578125 C24.83399389 23.80727844 23.75324093 25.30251594 20 28 C16.484375 28.890625 16.484375 28.890625 12.75 29.25 C8.55173061 29.31646822 8.55173061 29.31646822 5 31 C3.33382885 31.04063832 1.66611905 31.042721 0 31 C0 28.36 0 25.72 0 23 C3.63 23 7.26 23 11 23 C11 18.05 11 13.1 11 8 C7.37 8 3.74 8 0 8 C0 5.36 0 2.72 0 0 Z " fill="#000102" transform="translate(122,99)"/>
<path d="M0 0 C1.45019531 0.2784375 1.45019531 0.2784375 2.9296875 0.5625 C1.50195909 4.5550454 -0.41333067 7.78150977 -2.80859375 11.2734375 C-3.91557617 12.89378906 -3.91557617 12.89378906 -5.04492188 14.546875 C-5.82416876 15.6771178 -6.60346598 16.8073259 -7.3828125 17.9375 C-8.15081585 19.05960491 -8.91839778 20.18199839 -9.68554688 21.3046875 C-11.80434726 24.39728927 -13.9339019 27.48204476 -16.0703125 30.5625 C-16.60575684 31.33754883 -17.14120117 32.11259766 -17.69287109 32.91113281 C-18.79145978 34.48099669 -19.92562896 36.02592287 -21.0703125 37.5625 C-21.4003125 37.5625 -21.7303125 37.5625 -22.0703125 37.5625 C-23.26620291 24.94861597 -23.30809034 13.81469701 -15.29296875 3.38671875 C-10.87228997 -1.21163324 -5.96888472 -0.66189613 0 0 Z " fill="#00090A" transform="translate(98.0703125,98.4375)"/>
<path d="M0 0 C0.66 0 1.32 0 2 0 C3.14877384 14.09729871 2.24374212 23.00885862 -7 34 C-8 35 -8 35 -11.37890625 35.09765625 C-12.77347077 35.09098369 -14.16801743 35.07902532 -15.5625 35.0625 C-16.62887695 35.05573242 -16.62887695 35.05573242 -17.71679688 35.04882812 C-19.47790013 35.03700864 -21.23896036 35.01907263 -23 35 C-17.97559811 27.0510497 -12.87155504 19.1582478 -7.6875 11.3125 C-6.97271484 10.21744141 -6.25792969 9.12238281 -5.52148438 7.99414062 C-4.83763672 6.96095703 -4.15378906 5.92777344 -3.44921875 4.86328125 C-2.83393311 3.92782471 -2.21864746 2.99236816 -1.5847168 2.02856445 C-1.06176025 1.35913818 -0.53880371 0.68971191 0 0 Z " fill="#010608" transform="translate(221,155)"/>
<path d="M0 0 C3.61798643 1.20599548 3.78284138 1.90807177 5.48046875 5.18359375 C5.92197266 6.02857422 6.36347656 6.87355469 6.81835938 7.74414062 C7.27017578 8.63294922 7.72199219 9.52175781 8.1875 10.4375 C8.65091797 11.32244141 9.11433594 12.20738281 9.59179688 13.11914062 C13 19.70967185 13 19.70967185 13 22 C7.72 22 2.44 22 -3 22 C-7.14278046 13.83628556 -7.14278046 13.83628556 -6.5625 10.4375 C-6.046875 9.633125 -5.53125 8.82875 -5 8 C-4.58363281 7.31421875 -4.16726562 6.6284375 -3.73828125 5.921875 C-2.52135541 3.92737191 -1.27342493 1.95874141 0 0 Z " fill="#000607" transform="translate(89,121)"/>
<path d="M0 0 C5.28 0 10.56 0 16 0 C20.05097879 8.34747145 20.05097879 8.34747145 19.84375 11 C18.74250423 13.61036035 17.21715461 15.54969975 15.4375 17.75 C14.79683594 18.54921875 14.15617188 19.3484375 13.49609375 20.171875 C13.00238281 20.77515625 12.50867188 21.3784375 12 22 C9.69407737 19.87225288 8.20174065 17.82790923 6.73828125 15.05859375 C6.34189453 14.31029297 5.94550781 13.56199219 5.53710938 12.79101562 C5.13298828 12.01435547 4.72886719 11.23769531 4.3125 10.4375 C3.89677734 9.65697266 3.48105469 8.87644531 3.05273438 8.07226562 C0 2.26254618 0 2.26254618 0 0 Z " fill="#020A0D" transform="translate(198,146)"/>
<path d="M0 0 C0.99 0.495 0.99 0.495 2 1 C2 3.31 2 5.62 2 8 C5.96 8 9.92 8 14 8 C14 12.95 14 17.9 14 23 C10.04 23 6.08 23 2 23 C1.67 29.93 1.34 36.86 1 44 C0.67 44 0.34 44 0 44 C0 29.48 0 14.96 0 0 Z " fill="#16C0E1" transform="translate(119,99)"/>
<path d="M0 0 C0.33 0 0.66 0 1 0 C1 14.52 1 29.04 1 44 C0.34 44 -0.32 44 -1 44 C-1 41.36 -1 38.72 -1 36 C-4.63 36 -8.26 36 -12 36 C-12 31.05 -12 26.1 -12 21 C-8.37 21 -4.74 21 -1 21 C-0.67 14.07 -0.34 7.14 0 0 Z " fill="#20BFEB" transform="translate(179,146)"/>
<path d="M0 0 C5.28 0 10.56 0 16 0 C21 9.625 21 9.625 21 13 C16.38 13.33 11.76 13.66 7 14 C1.125 3.375 1.125 3.375 0 0 Z " fill="#010B0E" transform="translate(151,146)"/>
<path d="M0 0 C2.31 4.62 4.62 9.24 7 14 C1.72 14 -3.56 14 -9 14 C-10.98 9.71 -12.96 5.42 -15 1 C-13.081875 0.835 -11.16375 0.67 -9.1875 0.5 C-7.56908203 0.36078125 -7.56908203 0.36078125 -5.91796875 0.21875 C-3 0 -3 0 0 0 Z " fill="#000507" transform="translate(142,129)"/>
<path d="M0 0 C1.2065625 0.0309375 1.2065625 0.0309375 2.4375 0.0625 C2.4375 2.7025 2.4375 5.3425 2.4375 8.0625 C2.1075 8.0625 1.7775 8.0625 1.4375 8.0625 C1.4375 5.7525 1.4375 3.4425 1.4375 1.0625 C0.92058594 1.37574219 0.40367187 1.68898437 -0.12890625 2.01171875 C-4.2556712 3.79358034 -8.70885303 3.80307755 -13.15234375 4.20703125 C-17.39699965 5.27184184 -18.97015115 6.5580284 -21.5625 10.0625 C-22.37279852 13.39479312 -22.37279852 13.39479312 -22.375 16.875 C-22.42269531 18.03644531 -22.47039062 19.19789063 -22.51953125 20.39453125 C-22.53371094 21.27496094 -22.54789063 22.15539062 -22.5625 23.0625 C-22.8925 23.0625 -23.2225 23.0625 -23.5625 23.0625 C-24.48381674 9.49867021 -24.48381674 9.49867021 -21.4375 4.75 C-17.05298304 2.10655031 -11.49555465 1.942652 -6.51171875 1.421875 C-3.37973936 1.04022983 -3.03853395 0.07411058 0 0 Z " fill="#08333E" transform="translate(175.5625,158.9375)"/>
<path d="M0 0 C0.99 0.66 1.98 1.32 3 2 C-0.3 6.95 -3.6 11.9 -7 17 C-7.99 16.01 -8.98 15.02 -10 14 C-8.74022194 11.48044389 -6.99316354 9.99316354 -5 8 C-2.66954393 5.27003717 -1.13897735 3.41693206 0 0 Z " fill="#2098C4" transform="translate(218,155)"/>
<path d="M0 0 C0.99 0.66 1.98 1.32 3 2 C2.34 2 1.68 2 1 2 C0.773125 2.66 0.54625 3.32 0.3125 4 C-1.40571358 7.92734533 -3.66774607 11.41260178 -6 15 C-7.32 14.67 -8.64 14.34 -10 14 C-6.7 9.38 -3.4 4.76 0 0 Z " fill="#0EC0D7" transform="translate(88,119)"/>
<path d="M0 0 C0.33 0.66 0.66 1.32 1 2 C1.99 1.67 2.98 1.34 4 1 C6.05893621 0.77674186 8.12233653 0.59294241 10.1875 0.4375 C11.81751953 0.31181641 11.81751953 0.31181641 13.48046875 0.18359375 C14.31191406 0.12300781 15.14335937 0.06242188 16 0 C15.67 0.99 15.34 1.98 15 3 C10.05 3.66 5.1 4.32 0 5 C0 3.35 0 1.7 0 0 Z " fill="#19A1C4" transform="translate(157,158)"/>
<path d="M0 0 C0.66 0 1.32 0 2 0 C2 6.6 2 13.2 2 20 C1.67 20 1.34 20 1 20 C0.67 15.05 0.34 10.1 0 5 C-1.98 5.99 -1.98 5.99 -4 7 C-2.68 4.69 -1.36 2.38 0 0 Z " fill="#05181F" transform="translate(221,155)"/>
<path d="M0 0 C-1.11328125 1.48828125 -1.11328125 1.48828125 -3 3 C-5.91796875 3.29296875 -5.91796875 3.29296875 -9.1875 3.1875 C-10.27417969 3.16042969 -11.36085937 3.13335937 -12.48046875 3.10546875 C-13.72763672 3.05326172 -13.72763672 3.05326172 -15 3 C-14.67 2.34 -14.34 1.68 -14 1 C-9.28474515 0.20080426 -4.78845757 -0.11971144 0 0 Z " fill="#16B3D4" transform="translate(142,127)"/>
</svg>
